<mxfile host="app.diagrams.net" agent="Mozilla/5.0 (Windows NT 10.0; Win64; x64) AppleWebKit/537.36 (KHTML, like Gecko) Chrome/109.0.0.0 Safari/537.36" version="24.9.1">
  <diagram name="PÃ¡gina-1" id="IblgFvHGsd_N6glOGdPx">
    <mxGraphModel dx="1194" dy="1913" grid="1" gridSize="10" guides="1" tooltips="1" connect="1" arrows="1" fold="1" page="1" pageScale="1" pageWidth="827" pageHeight="1169" math="0" shadow="0">
      <root>
        <mxCell id="0" />
        <mxCell id="1" parent="0" />
        <mxCell id="Ra4HpWCew2fIQLV2hWC9-1" value="Prova" style="swimlane;fontStyle=1;align=center;verticalAlign=top;childLayout=stackLayout;horizontal=1;startSize=26;horizontalStack=0;resizeParent=1;resizeParentMax=0;resizeLast=0;collapsible=1;marginBottom=0;whiteSpace=wrap;html=1;fillColor=#ffffff;" vertex="1" parent="1">
          <mxGeometry x="350" y="-320" width="472" height="240" as="geometry" />
        </mxCell>
        <mxCell id="Ra4HpWCew2fIQLV2hWC9-2" value="&lt;div style=&quot;line-height: 160%;&quot;&gt;- nomeProva: String&amp;nbsp;&lt;br&gt;- nota: &lt;span class=&quot;hljs-keyword&quot;&gt;float&lt;/span&gt;&amp;nbsp;&lt;br&gt;- peso: &lt;span class=&quot;hljs-keyword&quot;&gt;float&lt;/span&gt;&lt;br&gt;&lt;/div&gt;" style="text;strokeColor=none;fillColor=none;align=left;verticalAlign=middle;spacingLeft=4;spacingRight=4;overflow=hidden;rotatable=0;points=[[0,0.5],[1,0.5]];portConstraint=eastwest;whiteSpace=wrap;html=1;" vertex="1" parent="Ra4HpWCew2fIQLV2hWC9-1">
          <mxGeometry y="26" width="472" height="64" as="geometry" />
        </mxCell>
        <mxCell id="Ra4HpWCew2fIQLV2hWC9-3" value="" style="line;strokeWidth=1;fillColor=none;align=left;verticalAlign=middle;spacingTop=-1;spacingLeft=3;spacingRight=3;rotatable=0;labelPosition=right;points=[];portConstraint=eastwest;strokeColor=inherit;" vertex="1" parent="Ra4HpWCew2fIQLV2hWC9-1">
          <mxGeometry y="90" width="472" height="8" as="geometry" />
        </mxCell>
        <mxCell id="Ra4HpWCew2fIQLV2hWC9-4" value="+ &lt;span class=&quot;hljs-title function_ invoke__&quot;&gt;Prova&lt;/span&gt;()&amp;nbsp;&lt;br&gt;+ &lt;span class=&quot;hljs-title function_ invoke__&quot;&gt;Prova&lt;/span&gt;(&lt;span class=&quot;hljs-attr&quot;&gt;nomeProva&lt;/span&gt;: String, &lt;span class=&quot;hljs-attr&quot;&gt;peso&lt;/span&gt;: &lt;span class=&quot;hljs-keyword&quot;&gt;float&lt;/span&gt;)&amp;nbsp;&lt;br&gt;+ &lt;span class=&quot;hljs-title function_ invoke__&quot;&gt;getNomeProva&lt;/span&gt;(): String&amp;nbsp;&lt;br&gt;+ &lt;span class=&quot;hljs-title function_ invoke__&quot;&gt;setNomeProva&lt;/span&gt;(&lt;span class=&quot;hljs-attr&quot;&gt;nomeProva&lt;/span&gt;: String): &lt;span class=&quot;hljs-keyword&quot;&gt;void&lt;/span&gt;&amp;nbsp;&lt;br&gt;+ &lt;span class=&quot;hljs-title function_ invoke__&quot;&gt;getPeso&lt;/span&gt;(): &lt;span class=&quot;hljs-keyword&quot;&gt;float&lt;/span&gt;&amp;nbsp;&lt;br&gt;+ &lt;span class=&quot;hljs-title function_ invoke__&quot;&gt;setPeso&lt;/span&gt;(&lt;span class=&quot;hljs-attr&quot;&gt;peso&lt;/span&gt;: &lt;span class=&quot;hljs-keyword&quot;&gt;float&lt;/span&gt;): &lt;span class=&quot;hljs-keyword&quot;&gt;void&lt;/span&gt;&amp;nbsp;&lt;br&gt;+ &lt;span class=&quot;hljs-title function_ invoke__&quot;&gt;getNota&lt;/span&gt;(): &lt;span class=&quot;hljs-keyword&quot;&gt;float&lt;/span&gt;&amp;nbsp;&lt;br&gt;+ &lt;span class=&quot;hljs-title function_ invoke__&quot;&gt;setNota&lt;/span&gt;(&lt;span class=&quot;hljs-attr&quot;&gt;nota&lt;/span&gt;: &lt;span class=&quot;hljs-keyword&quot;&gt;float&lt;/span&gt;): &lt;span class=&quot;hljs-keyword&quot;&gt;void&lt;/span&gt;&amp;nbsp;&lt;br&gt;+ &lt;span class=&quot;hljs-title function_ invoke__&quot;&gt;calcularNota&lt;/span&gt;(): &lt;span class=&quot;hljs-keyword&quot;&gt;double&lt;/span&gt;" style="text;strokeColor=none;fillColor=none;align=left;verticalAlign=top;spacingLeft=4;spacingRight=4;overflow=hidden;rotatable=0;points=[[0,0.5],[1,0.5]];portConstraint=eastwest;whiteSpace=wrap;html=1;" vertex="1" parent="Ra4HpWCew2fIQLV2hWC9-1">
          <mxGeometry y="98" width="472" height="142" as="geometry" />
        </mxCell>
        <mxCell id="Ra4HpWCew2fIQLV2hWC9-9" value="&lt;p style=&quot;margin:0px;margin-top:4px;text-align:center;&quot;&gt;&lt;i&gt;&amp;lt;&amp;lt;Interface&amp;gt;&amp;gt;&lt;/i&gt;&lt;br&gt;&lt;b&gt;Avaliacao&lt;/b&gt;&lt;/p&gt;&lt;hr size=&quot;1&quot; style=&quot;border-style:solid;&quot;&gt;&lt;p style=&quot;margin:0px;margin-left:4px;&quot;&gt;+ &lt;span class=&quot;hljs-title function_ invoke__&quot;&gt;calcularNota&lt;/span&gt;(): &lt;span class=&quot;hljs-keyword&quot;&gt;double&lt;/span&gt;&lt;/p&gt;" style="verticalAlign=top;align=left;overflow=fill;html=1;whiteSpace=wrap;" vertex="1" parent="1">
          <mxGeometry x="660" y="20" width="190" height="70" as="geometry" />
        </mxCell>
        <mxCell id="Ra4HpWCew2fIQLV2hWC9-10" style="edgeStyle=orthogonalEdgeStyle;rounded=0;orthogonalLoop=1;jettySize=auto;html=1;exitX=0.5;exitY=0;exitDx=0;exitDy=0;entryX=0.472;entryY=1.007;entryDx=0;entryDy=0;entryPerimeter=0;dashed=1;dashPattern=12 12;" edge="1" parent="1" source="Ra4HpWCew2fIQLV2hWC9-9" target="Ra4HpWCew2fIQLV2hWC9-4">
          <mxGeometry relative="1" as="geometry" />
        </mxCell>
      </root>
    </mxGraphModel>
  </diagram>
</mxfile>
